<svg width="1200" height="900" viewBox="0 0 1200 900" fill="none" xmlns="http://www.w3.org/2000/svg">
  <defs>
    <linearGradient id="bg" x1="0" y1="0" x2="1200" y2="900" gradientUnits="userSpaceOnUse">
      <stop offset="0%" stop-color="#F7EFE7"/>
      <stop offset="100%" stop-color="#E8DDD2"/>
    </linearGradient>
  </defs>
  <rect width="1200" height="900" fill="url(#bg)"/>
  <path d="M180 760C180 760 220 710 300 710C380 710 420 760 460 760C500 760 520 730 590 730C660 730 680 760 740 760C800 760 840 720 920 720C1000 720 1060 760 1060 760" stroke="#C8B29C" stroke-width="18" stroke-linecap="round"/>
  <rect x="120" y="140" width="500" height="540" rx="36" fill="#FFFFFF" opacity="0.9"/>
  <rect x="160" y="190" width="420" height="360" rx="26" fill="#F2E8DE"/>
  <rect x="210" y="240" width="330" height="44" rx="22" fill="#E0C8B2"/>
  <rect x="210" y="310" width="300" height="200" rx="18" fill="#FFFFFF"/>
  <circle cx="250" cy="370" r="28" fill="#E0C8B2"/>
  <path d="M210 510C210 470 250 430 300 430C350 430 390 470 390 510" stroke="#C8B29C" stroke-width="22" stroke-linecap="round"/>
  <path d="M650 220C650 220 760 180 860 270C960 360 950 540 850 650C760 730 620 740 580 700C520 650 540 520 600 500C650 480 720 460 760 470" fill="#FFFFFF" opacity="0.88"/>
  <circle cx="850" cy="340" r="40" fill="#C8B29C"/>
  <rect x="730" y="460" width="180" height="12" rx="6" fill="#D4B79F" transform="rotate(-10 730 460)"/>
  <rect x="760" y="520" width="240" height="16" rx="8" fill="#D4B79F" transform="rotate(-8 760 520)"/>
  <rect x="700" y="610" width="280" height="16" rx="8" fill="#D4B79F" transform="rotate(-6 700 610)"/>
  <path d="M420 120L470 80L520 120" stroke="#C8B29C" stroke-width="12" stroke-linecap="round" fill="none"/>
  <circle cx="570" cy="180" r="18" fill="#D4B79F"/>
</svg>
